# xmcd CD database file
#
# Track frame offsets:
#	150
#	24852
#	52973
#	85384
#	123900
#	150873
#	176731
#	197450
#	224732
#
# Disc length: 3352 seconds
#
# Revision: 0
# Processed by: cddbd v1.5.1PL0 Copyright (c) Steve Scherf et al.
# Submitted via: CDex 1.50Beta3
#
DISCID=6c0d1609
DTITLE=Stanley Clarke/Al Di Meola/Jean-Luc Ponty - The Rite Of Strings
DYEAR=1995
DGENRE=Jazz
TTITLE0=indigo
TTITLE1=renassaince
TTITLE2=song to john (dedicated to john coltrane)
TTITLE3=chilean pipe song
TTITLE4=topanga
TTITLE5=morocco
TTITLE6=change of life
TTITLE7=la cancion de sofia
TTITLE8=memory canyon
EXTD=YEAR: 1995
EXTT0=
EXTT1=
EXTT2=
EXTT3=
EXTT4=
EXTT5=
EXTT6=
EXTT7=
EXTT8=
PLAYORDER=
